<svg xmlns="http://www.w3.org/2000/svg" viewBox="0 0 512 512">
  <path fill="#ffffff" d="M357.2,296.9c-17,0-32.9-7.2-47.4-19l3.5-16.6l0.1-0.6c3.2-17.6,13.1-47.3,43.8-47.3c23,0,41.7,18.7,41.7,41.7 S380.2,296.9,357.2,296.9z M357.2,171c-40.7,0-72.2,26.5-85.1,70.1c-19.6-29.5-34.6-65.1-43.1-95.6h-43.9v115.5 c0,21.7-17.6,39.3-39.3,39.3s-39.3-17.6-39.3-39.3V145.5H62.5v115.5c0,46,37.4,83.4,83.4,83.4s83.4-37.4,83.4-83.4v-19.3 c8.4,17.1,18.7,34.3,31.2,49.4l-26.6,125.2h45l19.2-90.5c16.7,10.7,30.5,17.1,53.1,17.1c45.6,0,82.7-37.3,82.7-83 S402.8,171,357.2,171L357.2,171z"/>
</svg> 